<svg xmlns="http://www.w3.org/2000/svg" viewBox="0 0 214 64" role="img" aria-label="crucible">
  <defs>
    <linearGradient id="f" x1="0" y1="0" x2="0" y2="1">
      <stop offset="0" stop-color="#F2A45C"/>
      <stop offset=".55" stop-color="#E8681E"/>
      <stop offset="1" stop-color="#C0400A"/>
    </linearGradient>
  </defs>
  <g transform="translate(32 32) scale(1.12) translate(-32 -32)">
    <path d="M21 15h-4a6 6 0 0 0-6 6v22a6 6 0 0 0 6 6h4" fill="none" stroke="#C0400A" stroke-width="5.5" stroke-linecap="round"/>
    <path d="M43 15h4a6 6 0 0 1 6 6v22a6 6 0 0 1-6 6h-4" fill="none" stroke="#C0400A" stroke-width="5.5" stroke-linecap="round"/>
    <path d="M32 16.5c.3 3.9 2.5 6.5 4.7 9.2 2.1 2.6 4 5.3 4 8.5a8.7 8.7 0 1 1-17.4 0c0-3.2 1.9-5.9 4-8.5 2.2-2.7 4.4-5.3 4.7-9.2Z" fill="url(#f)"/>
    <path d="M32 31.5c-2.5 2-4 3.7-4 6a4 4 0 0 0 8 0c0-2.3-1.5-4-4-6Z" fill="#7E2905"/>
  </g>
  <text x="70" y="44" font-family="ui-sans-serif, system-ui, -apple-system, 'Segoe UI', Roboto, Helvetica, Arial, sans-serif" font-size="31" font-weight="650" letter-spacing="-0.5" fill="#17120D" textLength="136" lengthAdjust="spacingAndGlyphs">crucible</text>
</svg>
